#!OML:ASF G:\JayActor3\Patient Classification 1\Patient 1\Session 5\male.ASF
:FULLY-SPECIFIED
:DEGREES
495
root -20.1375 14.4559 -6.45469 -240.837 88.9211 -250.793
lowerback 37.1349 -1.85216 1.08478
upperback 8.1467 -0.985576 -0.954166
thorax -9.36438 -0.0363212 -1.26707
lowerneck -5.94249 -0.418862 2.26326
upperneck -11.0631 -0.281629 0.740208
head -2.48911 -0.107455 -0.151094
rclavicle 7.35503e-015 6.21202e-015
rhumerus -19.9095 4.02468 -85.6209
rradius 42.8674
rwrist -5.34831
rhand -20.8201 -8.93661
rfingers 7.12502
rthumb 5.54806 -38.844
lclavicle 7.35503e-015 6.21202e-015
lhumerus -22.663 -7.49146 81.438
lradius 39.8449
lwrist 23.3624
lhand -17.9061 12.1045
lfingers 7.12502
lthumb 8.36094 41.919
rfemur -75.756 -4.90473 21.8451
rtibia 72.9001
rfoot -19.2144 -10.248
rtoes -13.1566
lfemur -47.6644 -1.94301 -27.3453
ltibia 75.6345
lfoot -32.7059 14.263
ltoes -9.7671
496
root -20.0198 14.4723 -6.4497 -240.61 88.8908 -250.644
lowerback 37.0612 -1.84765 1.08851
upperback 8.13391 -0.982243 -0.942752
thorax -9.35252 -0.0366985 -1.25837
lowerneck -5.94887 -0.425932 2.27379
upperneck -11.0926 -0.290461 0.734722
head -2.49804 -0.111861 -0.154604
rclavicle 1.30204e-014 7.50412e-015
rhumerus -19.9908 4.03504 -85.6054
rradius 42.8762
rwrist -5.35382
rhand -20.8305 -8.95645
rfingers 7.12502
rthumb 5.53804 -38.8641
lclavicle 1.30204e-014 7.50412e-015
lhumerus -22.7069 -7.55012 81.5055
lradius 40.0081
lwrist 23.4322
lhand -17.888 12.0648
lfingers 7.12502
lthumb 8.37842 41.8786
rfemur -75.5532 -4.70062 21.7956
rtibia 69.9865
rfoot -19.3152 -10.5695
rtoes -13.0084
lfemur -47.1941 -1.85964 -27.3616
ltibia 75.6288
lfoot -32.8118 14.21
ltoes -10.4735
497
root -19.9019 14.488 -6.44283 -240.341 88.8533 -250.453
lowerback 36.9859 -1.83786 1.07396
upperback 8.12422 -0.978546 -0.9299
thorax -9.3362 -0.0365008 -1.23869
lowerneck -5.94273 -0.434935 2.27786
upperneck -11.1383 -0.300161 0.736873
head -2.51455 -0.116664 -0.154607
rclavicle -5.889e-015 -2.59662e-014
rhumerus -20.0698 4.04383 -85.5877
rradius 42.8846
rwrist -5.36249
rhand -20.8253 -8.98811
rfingers 7.12502
rthumb 5.54299 -38.8956
lclavicle -5.889e-015 -2.59662e-014
lhumerus -22.7533 -7.60804 81.5721
lradius 40.176
lwrist 23.5071
lhand -17.8744 12.0156
lfingers 7.12502
lthumb 8.39153 41.8289
rfemur -75.2637 -4.48497 21.6934
rtibia 67.0579
rfoot -19.3148 -10.8737
rtoes -12.974
lfemur -46.7585 -1.7441 -27.3842
ltibia 75.668
lfoot -32.8858 14.12
ltoes -11.183
498
root -19.7839 14.5027 -6.43403 -239.977 88.8095 -250.169
lowerback 36.9065 -1.82349 1.04345
upperback 8.11871 -0.974572 -0.916913
thorax -9.31345 -0.0357541 -1.21064
lowerneck -5.92306 -0.444878 2.28263
upperneck -11.1972 -0.309947 0.744392
head -2.53789 -0.121733 -0.153024
rclavicle -3.10601e-015 -6.23687e-015
rhumerus -20.1406 4.04965 -85.5688
rradius 42.8837
rwrist -5.35166
rhand -20.8342 -8.99729
rfingers 7.12502
rthumb 5.53447 -38.905
lclavicle -3.10601e-015 -6.23687e-015
lhumerus -22.7995 -7.67346 81.6359
lradius 40.3449
lwrist 23.5864
lhand -17.8688 11.9841
lfingers 7.12502
lthumb 8.39699 41.7971
rfemur -74.8919 -4.24713 21.5273
rtibia 64.1345
rfoot -19.2179 -11.1603
rtoes -13.0496
lfemur -46.36 -1.59397 -27.4112
ltibia 75.7532
lfoot -32.9109 14.0117
ltoes -11.938
499
root -19.6658 14.5151 -6.4236 -240.741 88.7704 -251.025
lowerback 36.8089 -1.79213 0.988636
upperback 8.11513 -0.959661 -0.907345
thorax -9.28146 -0.0298947 -1.1778
lowerneck -5.89005 -0.455655 2.28742
upperneck -11.2618 -0.320102 0.756658
head -2.56546 -0.127237 -0.149921
rclavicle -3.00413e-014 -2.80783e-014
rhumerus -20.2007 4.0493 -85.5495
rradius 42.8751
rwrist -5.35716
rhand -20.8245 -9.02089
rfingers 7.12502
rthumb 5.5438 -38.9284
lclavicle -3.00413e-014 -2.80783e-014
lhumerus -22.8413 -7.74543 81.695
lradius 40.5024
lwrist 23.6739
lhand -17.8667 11.9545
lfingers 7.12502
lthumb 8.399 41.7675
rfemur -74.4691 -3.96475 21.2949
rtibia 61.2483
rfoot -19.0079 -11.4071
rtoes -13.2225
lfemur -46.0213 -1.38897 -27.4486
ltibia 75.8918
lfoot -32.8767 13.923
ltoes -12.7923
500
root -19.5475 14.526 -6.41147 -241.915 88.7347 -252.295
lowerback 36.6966 -1.74892 0.922263
upperback 8.11465 -0.934817 -0.900424
thorax -9.24038 -0.0193656 -1.1456
lowerneck -5.84727 -0.469212 2.29847
upperneck -11.3235 -0.334218 0.770025
head -2.5939 -0.135162 -0.147482
rclavicle 7.30534e-015 1.59028e-014
rhumerus -20.2527 4.03211 -85.5303
rradius 42.8488
rwrist -5.34862
rhand -20.8269 -9.03003
rfingers 7.12502
rthumb 5.54146 -38.9376
lclavicle 7.30534e-015 1.59028e-014
lhumerus -22.8735 -7.83486 81.7514
lradius 40.6427
lwrist 23.7728
lhand -17.8714 11.9402
lfingers 7.12502
lthumb 8.39449 41.7534
rfemur -73.9925 -3.62987 20.9814
rtibia 58.437
rfoot -18.7628 -11.6057
rtoes -13.3749
lfemur -45.723 -1.13971 -27.4842
ltibia 76.0721
lfoot -32.8098 13.8075
ltoes -13.6461
501
root -19.4284 14.5349 -6.39776 -243.316 88.7002 -253.794
lowerback 36.5724 -1.6964 0.853186
upperback 8.11425 -0.900575 -0.900467
thorax -9.19478 -0.00457523 -1.12302
lowerneck -5.79229 -0.487386 2.32424
upperneck -11.375 -0.355702 0.781264
head -2.62118 -0.147579 -0.14813
rclavicle -2.99419e-015 1.31198e-014
rhumerus -20.3053 3.99281 -85.5174
rradius 42.7967
rwrist -5.30326
rhand -20.8587 -9.00315
rfingers 7.12502
rthumb 5.51075 -38.9115
lclavicle -2.99419e-015 1.31198e-014
lhumerus -22.8978 -7.95099 81.8016
lradius 40.7595
lwrist 23.8709
lhand -17.881 11.9444
lfingers 7.12502
lthumb 8.3852 41.7579
rfemur -73.4791 -3.24956 20.5877
rtibia 55.7517
rfoot -18.4983 -11.761
rtoes -13.5124
lfemur -45.4549 -0.851878 -27.5171
ltibia 76.292
lfoot -32.7261 13.6631
ltoes -14.4809
502
root -19.3082 14.542 -6.38237 -244.102 88.6687 -254.671
lowerback 36.4427 -1.64471 0.797334
upperback 8.11617 -0.862482 -0.903596
thorax -9.14472 0.0119923 -1.11212
lowerneck -5.73111 -0.510777 2.35649
upperneck -11.4084 -0.385212 0.793999
head -2.64362 -0.164555 -0.149311
rclavicle 1.4884e-014 3.29237e-014
rhumerus -20.3598 3.9293 -85.5096
rradius 42.7216
rwrist -5.24259
rhand -20.9107 -8.96576
rfingers 7.12502
rthumb 5.46056 -38.8754
lclavicle 1.4884e-014 3.29237e-014
lhumerus -22.9128 -8.08917 81.8465
lradius 40.8501
lwrist 23.9683
lhand -17.8842 11.9464
lfingers 7.12502
lthumb 8.38211 41.7601
rfemur -72.9321 -2.82983 20.1193
rtibia 53.2457
rfoot -18.2424 -11.8954
rtoes -13.5951
lfemur -45.1929 -0.544906 -27.5312
ltibia 76.5383
lfoot -32.6476 13.479
ltoes -15.2642
503
root -19.1862 14.5473 -6.36522 -243.555 88.6344 -254.199
lowerback 36.3102 -1.60494 0.761331
upperback 8.1238 -0.830834 -0.906895
thorax -9.08768 0.0258091 -1.10927
lowerneck -5.67384 -0.536632 2.39126
upperneck -11.4176 -0.419411 0.806577
head -2.65726 -0.184118 -0.150906
rclavicle -3.91357e-015 -7.00095e-015
rhumerus -20.4152 3.84978 -85.5063
rradius 42.6323
rwrist -5.17208
rhand -20.9623 -8.92731
rfingers 7.12502
rthumb 5.41074 -38.8382
lclavicle -3.91357e-015 -7.00095e-015
lhumerus -22.9165 -8.23885 81.8872
lradius 40.9145
lwrist 24.0478
lhand -17.8913 11.9663
lfingers 7.12502
lthumb 8.37522 41.7802
rfemur -72.3641 -2.39148 19.5865
rtibia 50.978
rfoot -18.0138 -12.0263
rtoes -13.6448
lfemur -44.9159 -0.23831 -27.5223
ltibia 76.8027
lfoot -32.5889 13.2499
ltoes -16.0022
504
root -19.0617 14.5501 -6.34636 -241.297 88.593 -251.998
lowerback 36.1793 -1.58508 0.75036
upperback 8.13744 -0.812976 -0.906167
thorax -9.02504 0.0335138 -1.10994
lowerneck -5.62853 -0.56318 2.42034
upperneck -11.3983 -0.456112 0.817208
head -2.65916 -0.204711 -0.152125
rclavicle 7.52897e-015 8.50426e-015
rhumerus -20.4696 3.76624 -85.502
rradius 42.5657
rwrist -5.16111
rhand -20.925 -9.02331
rfingers 7.12502
rthumb 5.44677 -38.9333
lclavicle 7.52897e-015 8.50426e-015
lhumerus -22.9121 -8.38461 81.9249
lradius 40.9531
lwrist 24.1081
lhand -17.8893 11.9971
lfingers 7.12502
lthumb 8.37712 41.811
rfemur -71.7919 -1.95998 19.0174
rtibia 49.0013
rfoot -17.812 -12.1605
rtoes -13.647
lfemur -44.6116 0.0475349 -27.4838
ltibia 77.0756
lfoot -32.5508 12.9834
ltoes -16.6716
505
root -18.9342 14.5501 -6.3258 -237.408 88.5343 -248.144
lowerback 36.0503 -1.58981 0.757652
upperback 8.16 -0.81648 -0.897803
thorax -8.95363 0.031828 -1.1039
lowerneck -5.60267 -0.58806 2.43196
upperneck -11.3511 -0.491753 0.826873
head -2.6481 -0.223995 -0.150716
rclavicle -1.54244e-014 -4.18714e-014
rhumerus -20.5139 3.67873 -85.4909
rradius 42.5457
rwrist -5.27052
rhand -20.7191 -9.30174
rfingers 7.12502
rthumb 5.64555 -39.2065
lclavicle -1.54244e-014 -4.18714e-014
lhumerus -22.9005 -8.50051 81.961
lradius 40.9688
lwrist 24.1419
lhand -17.8783 12.0302
lfingers 7.12502
lthumb 8.38779 41.8437
rfemur -71.2312 -1.54306 18.4223
rtibia 47.3619
rfoot -17.6526 -12.3021
rtoes -13.5888
lfemur -44.2705 0.307426 -27.4184
ltibia 77.3543
lfoot -32.5467 12.681
ltoes -17.2677
506
root -18.8039 14.5477 -6.30371 -232.054 88.445 -242.806
lowerback 35.9241 -1.62361 0.785295
upperback 8.18908 -0.846429 -0.881289
thorax -8.87664 0.0182705 -1.08986
lowerneck -5.61615 -0.610679 2.43326
upperneck -11.263 -0.527288 0.827376
head -2.61627 -0.24236 -0.150538
rclavicle 2.05168e-014 3.04979e-014
rhumerus -20.5517 3.604 -85.4757
rradius 42.5505
rwrist -5.41662
rhand -20.442 -9.67271
rfingers 7.12502
rthumb 5.91312 -39.5702
lclavicle 2.05168e-014 3.04979e-014
lhumerus -22.8865 -8.58208 81.9952
lradius 40.9664
lwrist 24.1536
lhand -17.8578 12.0653
lfingers 7.12502
lthumb 8.40755 41.878
rfemur -70.6977 -1.16101 17.825
rtibia 46.0888
rfoot -17.5536 -12.4472
rtoes -13.4802
lfemur -43.892 0.532327 -27.3273
ltibia 77.6315
lfoot -32.5613 12.3693
ltoes -17.8472
507
root -18.671 14.5416 -6.28061 -226.657 88.3277 -237.427
lowerback 35.7887 -1.67457 0.821083
upperback 8.21867 -0.89461 -0.860898
thorax -8.79611 -0.00384727 -1.0692
lowerneck -5.6669 -0.628457 2.4199
upperneck -11.1385 -0.558612 0.820463
head -2.56557 -0.257615 -0.15035
rclavicle -1.08213e-014 -2.81964e-014
rhumerus -20.5864 3.55114 -85.4602
rradius 42.5312
rwrist -5.51471
rhand -20.2207 -9.95133
rfingers 7.12502
rthumb 6.12673 -39.8427
lclavicle -1.08213e-014 -2.81964e-014
lhumerus -22.8767 -8.62151 82.027
lradius 40.9521
lwrist 24.1392
lhand -17.8342 12.1103
lfingers 7.12502
lthumb 8.43037 41.9221
rfemur -70.231 -0.821032 17.2594
rtibia 45.1961
rfoot -17.4673 -12.5728
rtoes -13.3072
lfemur -43.5057 0.733232 -27.2225
ltibia 77.917
lfoot -32.5974 12.06
ltoes -18.4235
508
root -18.5357 14.5327 -6.25642 -221.457 88.1798 -232.248
lowerback 35.6428 -1.73972 0.863873
upperback 8.24864 -0.957811 -0.836016
thorax -8.71158 -0.0330721 -1.04198
lowerneck -5.75652 -0.643928 2.4008
upperneck -10.982 -0.589499 0.80121
head -2.49751 -0.271877 -0.153215
rclavicle -9.85227e-015 -2.23322e-014
rhumerus -20.6232 3.51842 -85.4447
rradius 42.474
rwrist -5.52398
rhand -20.1153 -10.0653
rfingers 7.12502
rthumb 6.22852 -39.9537
lclavicle -9.85227e-015 -2.23322e-014
lhumerus -22.8695 -8.62526 82.0595
lradius 40.9265
lwrist 24.11
lhand -17.8126 12.1423
lfingers 7.12502
lthumb 8.45119 41.9532
rfemur -69.8303 -0.521178 16.7322
rtibia 44.6791
rfoot -17.3934 -12.6713
rtoes -12.9986
lfemur -43.1139 0.923511 -27.1057
ltibia 78.2082
lfoot -32.6412 11.788
ltoes -19.0749
